          The Mummy's Kiss 2003 DVDRip Xvid fasamoo LKRG


RIPPER                           : fasamoo
Format                           : AVI
Format/Info                      : Audio Video Interleave
File size                        : 699 MiB
Duration                         : 1h 28mn
Overall bit rate                 : 1 106 Kbps
Writing application              : VirtualDubMod 1.5.4.1 (build 2178/release)
Writing library                  : VirtualDubMod build 2178/release
Language                         : English
Subtitles                        : None
Genre                            : Horror

Video
ID                               : 0
Format                           : MPEG-4 Visual
Format profile                   : Advanced Simple@L5
Format settings, BVOP            : Yes
Format settings, QPel            : No
Format settings, GMC             : No warppoints
Format settings, Matrix          : Custom
Codec ID                         : XVID
Codec ID/Hint                    : XviD
Duration                         : 1h 28mn
Bit rate                         : 980 Kbps
Width                            : 528 pixels
Height                           : 288 pixels
Display aspect ratio             : 16:9
Frame rate                       : 29.970 fps
Color space                      : YUV
Chroma subsampling               : 4:2:0
Bit depth                        : 8 bits
Scan type                        : Progressive
Bits/(Pixel*Frame)               : 0.215
Stream size                      : 619 MiB (89%)
Writing library                  : XviD 1.2.1 (UTC 2008-12-04)

Audio
ID                               : 1
Format                           : MPEG Audio
Format version                   : Version 1
Format profile                   : Layer 3
Mode                             : Joint stereo
Mode extension                   : MS Stereo
Codec ID                         : 55
Codec ID/Hint                    : MP3
Duration                         : 1h 28mn
Bit rate mode                    : Variable
Bit rate                         : 112 Kbps
Nominal bit rate                 : 128 Kbps
Channel(s)                       : 2 channels
Sampling rate                    : 48.0 KHz
Video delay                      : 6s 840ms
Stream size                      : 71.2 MiB (10%)
Alignment                        : Split accross interleaves
Interleave, duration             : 24 ms (0.72 video frame)
Interleave, preload duration     : 1723 ms
Writing library                  : LAME3.98r
Encoding settings                : -m j -V 4 -q 2 -lowpass 17 --abr 128


                                 PLOT

Princess Ankahnten ruled ancient Egypt four thousand years ago. She was punished with death for engaging in acts that were considered taboo. Today in modern Los Angeles, she is a mummy that has been excavated. When a recitation of spells brings her back to life, she seduces female students who cannot resist her powers and beauty.

  







                                 IMBD
                     
                    http://www.imdb.com/title/tt0347585/
 
http://leetleech.org/images/29044964971128003451.png 
http://leetleech.org/images/51790511211896838644.png 
http://leetleech.org/images/91028613023830113182.png 
http://leetleech.org/images/07667444335877507151.png 
http://leetleech.org/images/65347582414474953641.png 
http://leetleech.org/images/38450508481492145718.png 
http://leetleech.org/images/15379040159582782596.png 
http://leetleech.org/images/72598372235601805124.png